# xmcd
#
# Track frame offsets:
#	150
#	12052
#	27190
#	33190
#	48700
#	61392
#	72845
#	80747
#	91952
#	112380
#	126612
#	135785
#	145955
#	156760
#	167267
#
# Disc length: 2369 seconds
#
# Revision: 1
# Processed by: cddbd v1.5.1PL0 Copyright (c) Steve Scherf et al.
# Submitted via: audiograbber 1.83.01
#
DISCID=c9093f0f
DTITLE=diversen artiesten - country road CD 1
DYEAR=1900
DGENRE=Country
TTITLE0=tina turner - stand by your man
TTITLE1=federation - duelling banjo's
TTITLE2=jim reevers - have i told you lately that i love you
TTITLE3=tina tuner - if this our last time
TTITLE4=farron young - its four the morning
TTITLE5=patsy cline - i've loved and lost again
TTITLE6=george jones - jambalaya
TTITLE7=frankie laine - love is a golden ring
TTITLE8=federation - who's on the otherr line
TTITLE9=george jones - open pit mine
TTITLE10=frankie laine - rawhide
TTITLE11=carl perkins - daddy sang bass
TTITLE12=guy mitchell - singing the blues
TTITLE13=rick nelson - traveling man
TTITLE14=ferlin husky - wings of a dove
EXTD=
EXTT0=
EXTT1=
EXTT2=
EXTT3=
EXTT4=
EXTT5=
EXTT6=
EXTT7=
EXTT8=
EXTT9=
EXTT10=
EXTT11=
EXTT12=
EXTT13=
EXTT14=
PLAYORDER=
